<?xml version="1.0" encoding="UTF-8" standalone="no"?>
<!-- Created with Inkscape (http://www.inkscape.org/) -->

<svg
   xmlns:dc="http://purl.org/dc/elements/1.1/"
   xmlns:cc="http://creativecommons.org/ns#"
   xmlns:rdf="http://www.w3.org/1999/02/22-rdf-syntax-ns#"
   xmlns:svg="http://www.w3.org/2000/svg"
   xmlns="http://www.w3.org/2000/svg"
   xmlns:xlink="http://www.w3.org/1999/xlink"
   xmlns:sodipodi="http://sodipodi.sourceforge.net/DTD/sodipodi-0.dtd"
   xmlns:inkscape="http://www.inkscape.org/namespaces/inkscape"
   width="1920"
   height="1080"
   id="svg2"
   version="1.1"
   inkscape:version="0.48.5 r10040"
   sodipodi:docname="cover.svg"
   inkscape:export-filename="/home/brice/Projets/agrilibre/Thinny/assets/images/cover.png"
   inkscape:export-xdpi="90"
   inkscape:export-ydpi="90">
  <defs
     id="defs4">
    <linearGradient
       inkscape:collect="always"
       id="linearGradient3814">
      <stop
         style="stop-color:#ffffff;stop-opacity:1;"
         offset="0"
         id="stop3816" />
      <stop
         style="stop-color:#ffffff;stop-opacity:0;"
         offset="1"
         id="stop3818" />
    </linearGradient>
    <linearGradient
       id="linearGradient3940">
      <stop
         style="stop-color:#191205;stop-opacity:1;"
         offset="0"
         id="stop3942" />
      <stop
         style="stop-color:#d89d30;stop-opacity:1;"
         offset="1"
         id="stop3944" />
    </linearGradient>
    <linearGradient
       id="linearGradient3892">
      <stop
         style="stop-color:#000000;stop-opacity:1;"
         offset="0"
         id="stop3894" />
      <stop
         style="stop-color:#6c6c6c;stop-opacity:1;"
         offset="1"
         id="stop3896" />
    </linearGradient>
    <linearGradient
       id="linearGradient3844">
      <stop
         style="stop-color:#000000;stop-opacity:0;"
         offset="0"
         id="stop3846" />
      <stop
         id="stop3872"
         offset="0.5"
         style="stop-color:#000000;stop-opacity:0.23703703;" />
      <stop
         style="stop-color:#000000;stop-opacity:0.86666667;"
         offset="1"
         id="stop3848" />
    </linearGradient>
    <linearGradient
       id="linearGradient3787">
      <stop
         style="stop-color:#4bb85b;stop-opacity:1;"
         offset="0"
         id="stop3789" />
      <stop
         style="stop-color:#dcc827;stop-opacity:1;"
         offset="1"
         id="stop3791" />
    </linearGradient>
    <linearGradient
       id="linearGradient3755">
      <stop
         style="stop-color:#173414;stop-opacity:1;"
         offset="0"
         id="stop3757" />
      <stop
         style="stop-color:#a0ee90;stop-opacity:1;"
         offset="1"
         id="stop3759" />
    </linearGradient>
    <linearGradient
       inkscape:collect="always"
       xlink:href="#linearGradient3755"
       id="linearGradient3761"
       x1="-280.5"
       y1="520"
       x2="2437.6428"
       y2="520"
       gradientUnits="userSpaceOnUse" />
    <filter
       inkscape:collect="always"
       id="filter3767"
       x="-0.11196469"
       width="1.2239294"
       y="-0.19573238"
       height="1.3914648">
      <feGaussianBlur
         inkscape:collect="always"
         stdDeviation="126.76002"
         id="feGaussianBlur3769" />
    </filter>
    <linearGradient
       inkscape:collect="always"
       xlink:href="#linearGradient3787"
       id="linearGradient3793"
       x1="316.10385"
       y1="352.33362"
       x2="40.329662"
       y2="-318.64151"
       gradientUnits="userSpaceOnUse" />
    <radialGradient
       inkscape:collect="always"
       xlink:href="#linearGradient3844"
       id="radialGradient3850"
       cx="948.57141"
       cy="527.14288"
       fx="948.57141"
       fy="527.14288"
       r="1097.1428"
       gradientTransform="matrix(1.0494792,0.01041667,-0.00611271,0.6158551,-43.712252,192.61829)"
       gradientUnits="userSpaceOnUse" />
    <linearGradient
       inkscape:collect="always"
       xlink:href="#linearGradient3892"
       id="linearGradient3898"
       x1="-422.84278"
       y1="547.14286"
       x2="2342.8427"
       y2="547.14286"
       gradientUnits="userSpaceOnUse" />
    <linearGradient
       inkscape:collect="always"
       xlink:href="#linearGradient3787-9"
       id="linearGradient3793-1"
       x1="369.57248"
       y1="657.08167"
       x2="3.4341908"
       y2="312.00653"
       gradientUnits="userSpaceOnUse" />
    <linearGradient
       id="linearGradient3787-9">
      <stop
         style="stop-color:#4bb85b;stop-opacity:1;"
         offset="0"
         id="stop3789-4" />
      <stop
         style="stop-color:#dcc827;stop-opacity:1;"
         offset="1"
         id="stop3791-1" />
    </linearGradient>
    <linearGradient
       inkscape:collect="always"
       xlink:href="#linearGradient3940"
       id="linearGradient3946"
       x1="1849.2045"
       y1="1092.8572"
       x2="1630.7954"
       y2="752.85724"
       gradientUnits="userSpaceOnUse" />
    <filter
       inkscape:collect="always"
       id="filter3972"
       x="-0.15174214"
       width="1.3034843"
       y="-0.15287573"
       height="1.3057515">
      <feGaussianBlur
         inkscape:collect="always"
         stdDeviation="95.795121"
         id="feGaussianBlur3974" />
    </filter>
    <filter
       inkscape:collect="always"
       id="filter3996"
       x="-0.14215155"
       width="1.2843031"
       y="-0.29568992"
       height="1.5913798">
      <feGaussianBlur
         inkscape:collect="always"
         stdDeviation="136.22857"
         id="feGaussianBlur3998" />
    </filter>
    <linearGradient
       inkscape:collect="always"
       xlink:href="#linearGradient3814"
       id="linearGradient3820"
       x1="-718.85412"
       y1="290.49767"
       x2="1253.1805"
       y2="-445.01758"
       gradientUnits="userSpaceOnUse" />
    <linearGradient
       inkscape:collect="always"
       xlink:href="#linearGradient3814-9"
       id="linearGradient3820-6"
       x1="-718.85413"
       y1="290.49768"
       x2="1253.1805"
       y2="-445.01758"
       gradientUnits="userSpaceOnUse" />
    <linearGradient
       id="linearGradient3814-9">
      <stop
         style="stop-color:#84b67f;stop-opacity:1;"
         offset="0"
         id="stop3816-4" />
      <stop
         style="stop-color:#ffffff;stop-opacity:0;"
         offset="1"
         id="stop3818-0" />
    </linearGradient>
  </defs>
  <sodipodi:namedview
     id="base"
     pagecolor="#ffffff"
     bordercolor="#666666"
     borderopacity="1.0"
     inkscape:pageopacity="0.0"
     inkscape:pageshadow="2"
     inkscape:zoom="0.49497475"
     inkscape:cx="761.17002"
     inkscape:cy="593.56133"
     inkscape:document-units="px"
     inkscape:current-layer="layer1"
     showgrid="false"
     borderlayer="true"
     inkscape:showpageshadow="false"
     inkscape:window-width="1920"
     inkscape:window-height="983"
     inkscape:window-x="0"
     inkscape:window-y="25"
     inkscape:window-maximized="1" />
  <metadata
     id="metadata7">
    <rdf:RDF>
      <cc:Work
         rdf:about="">
        <dc:format>image/svg+xml</dc:format>
        <dc:type
           rdf:resource="http://purl.org/dc/dcmitype/StillImage" />
        <dc:title></dc:title>
      </cc:Work>
    </rdf:RDF>
  </metadata>
  <g
     inkscape:label="Calque 1"
     inkscape:groupmode="layer"
     id="layer1"
     transform="translate(0,27.637817)">
    <rect
       style="fill:url(#linearGradient3761);fill-rule:evenodd;stroke:none;stroke-width:1px;stroke-linecap:butt;stroke-linejoin:miter;stroke-opacity:1;fill-opacity:1.0;filter:url(#filter3767)"
       id="rect3753"
       width="2717.1428"
       height="1554.2858"
       x="-280"
       y="-257.14285"
       transform="translate(0,-27.637817)" />
    <path
       sodipodi:type="spiral"
       style="opacity:0.09124092;fill:none;stroke:#515151;stroke-width:5.08832359;stroke-linecap:butt;stroke-linejoin:miter;stroke-miterlimit:4;stroke-opacity:0.4692308;stroke-dasharray:none"
       id="path3792-7"
       sodipodi:cx="417.14285"
       sodipodi:cy="302.85715"
       sodipodi:expansion="1"
       sodipodi:revolution="36"
       sodipodi:radius="1119.4996"
       sodipodi:argument="-17.926352"
       sodipodi:t0="0"
       d="m 417.14285,302.85715 c 2.82178,3.73048 -3.63645,5.64419 -6.20031,4.68998 -6.94789,-2.58584 -6.82687,-11.92779 -3.17966,-17.0906 6.52401,-9.23505 20.04428,-8.54786 27.9809,-1.66934 11.6473,10.09451 10.33709,28.2771 0.15901,38.87119 -13.56576,14.12026 -36.55203,12.15642 -49.76148,-1.35131 -16.62275,-16.99809 -13.99154,-44.84723 2.86163,-60.65177 20.41145,-19.14143 53.15389,-15.83584 71.54207,4.37195 21.66984,23.81418 17.6859,61.46769 -5.88227,82.43236 -27.2104,24.20455 -69.78627,19.53982 -93.32266,-7.39259 -26.74354,-30.60232 -21.39642,-78.1082 8.90292,-104.21296 33.99128,-29.28559 86.43257,-23.25497 115.10324,10.41325 31.82989,37.3781 25.11499,94.75877 -11.92356,125.99354 -40.76334,34.37589 -103.0864,26.97612 -136.88384,-13.43389 -36.92321,-44.14735 -28.83813,-111.41513 14.94422,-147.77413 47.53042,-39.47158 119.74476,-30.70084 158.66442,16.45454 42.02078,50.91273 32.56412,128.07512 -17.96486,169.55471 -54.29443,44.57068 -136.40608,34.42787 -180.44501,-19.47518 -47.12113,-57.67563 -36.292,-144.73754 20.9855,-191.3353 61.05641,-49.67207 153.06943,-38.15646 202.2256,22.49582 52.2234,64.43684 40.02119,161.40167 -24.00615,213.11589 -67.81697,54.77507 -169.73422,41.88617 -224.00618,-25.51647 -57.32704,-71.19686 -43.75134,-178.06704 27.02679,-234.89648 74.57652,-59.87925 186.40009,-45.61668 245.78677,28.53712 62.4317,77.95599 47.4822,194.73335 -30.04744,256.67707 -81.3353,64.98433 -203.06677,49.34783 -267.56736,-31.55777 -67.53713,-84.71446 -51.21359,-211.40036 33.06809,-278.45765 88.09349,-70.090087 219.7341,-53.079465 289.34795,34.57841 72.64318,91.47241 54.94543,228.06796 -36.08873,300.23824 -94.85123,75.19639 -236.40194,56.81148 -311.12854,-37.59905 -77.7497,-98.22996 -58.6776,-244.73601 39.10938,-322.01883 101.6086,-80.303123 253.07017,-60.5438 332.90912,40.6197 82.85662,104.98717 62.41006,261.40442 -42.13002,343.79941 C 458.85672,586.67722 297.48364,565.54338 212.53268,457.62667 124.56882,345.88255 146.38994,179.55353 257.68335,92.046663 372.80585,1.5290828 544.09094,24.037518 634.15364,138.70766 727.22501,257.20849 704.02925,433.44976 585.98233,526.06825 464.1032,621.69345 282.90565,597.81035 187.73144,476.38661 89.552357,351.12923 114.12281,164.97531 238.9234,67.24543 367.55899,-33.487592 558.66936,-8.2297666 658.95488,119.94771 762.24188,251.96147 736.29667,448.02838 604.74227,550.86948 469.35038,656.7105 268.32686,630.0779 162.93021,495.14655 54.535135,356.37655 81.855137,150.39636 220.16346,42.444197 362.31154,-68.50497 573.24846,-40.497556 683.75611,101.18777 797.2594,246.71391 768.56457,462.60762 623.50221,575.67071 474.59805,691.72816 253.74749,662.34589 138.12898,513.90649 19.517354,361.62433 49.587056,135.81687 201.40352,17.642963 357.06367,-103.52287 587.82807,-72.76572 708.55735,82.42783 832.27741,241.46594 800.83281,477.18733 642.26216,600.47195 479.8461,726.74627 239.16768,694.61421 113.32774,532.66644 -15.50085,366.87246 17.318671,121.23696 182.64358,-7.1582701 351.81547,-138.54116 602.40806,-105.03417 733.35858,63.667888 867.29579,236.21767 833.10132,491.76741 661.0221,625.27318 485.09444,761.76472 224.58753,726.88278 88.52651,551.42638 -50.519381,372.12085 -14.949953,106.65674 163.88364,-31.959504 346.56701,-173.55976 616.98836,-137.30285 758.15981,44.907946 902.31445,230.96916 865.37004,506.34777 679.78204,650.07441 490.343,796.78345 210.0071,759.15155 63.725277,570.18632 -85.538171,377.36946 -47.218764,92.076253 145.1237,-56.760737 341.31836,-208.57861 631.5689,-169.5717 782.96105,26.148004 937.33335,225.72046 897.63893,520.92836 698.54198,674.87565 495.59174,831.8024 195.42646,791.42047 38.924044,588.94626 -120.55717,382.61824 -79.487726,77.495564 126.36375,-81.56197 336.06954,-243.59765 646.14964,-201.84069 807.76228,7.3880625 972.35244,220.47161 929.90796,535.50914 717.30192,699.67688 500.84063,866.82153 180.84564,823.68953 14.12281,607.7062 -155.57634,387.86716 -111.75681,62.914706 107.60381,-106.3632 330.82059,-278.61686 660.73053,-234.10981 832.56351,-11.371879 1007.3717,215.22263 962.1771,550.09007 736.06186,724.47811 506.08964,901.84081 166.26467,855.9587 -10.678423,626.46614 -190.59565,393.1162 -144.026,48.333708 88.84387,-131.16444 325.57153,-313.6362 675.31156,-266.37902 857.36475,-30.131821 1042.3911,209.97354 994.44633,564.67113 754.82181,749.27935 511.33874,936.86021 151.68359,888.22795 -35.479657,645.22609 -225.61507,398.36533 -176.29528,33.752593 70.083928,-155.96567 320.32238,-348.65565 689.8927,-298.64831 882.16598,-48.891763 1077.4105,204.72437 1026.7156,579.2523 773.58175,774.08058 516.58794,971.87971 137.1024,920.49728 -60.28089,663.98603 -260.6346,403.61454 -208.56462,19.171379 51.323986,-180.7669 315.07315,-383.6752 704.47394,-330.91768 906.96721,-67.651705 1112.4301,199.47512 1058.985,593.83356 792.34169,798.88181 521.8372,1006.8993 122.52112,952.76668 -85.082123,682.74597 -295.65421,408.86382 -240.83403,4.5900801 32.564044,-205.56814 309.82385,-418.69483 719.05526,-363.1871 931.76845,-86.411647 1147.4497,194.22581 1091.2545,608.41489 811.10163,823.68305 527.08652,1041.919 107.93976,985.03612 -109.88336,701.50591 -330.67389,414.11316 -273.10349,-9.9912917 13.804102,-230.36937 304.5745,-453.71452 733.63664,-395.45657 956.56968,-105.17159 1182.4695,188.97645 1123.5239,622.9963 829.86157,848.48428 532.3359,1076.9387 93.358343,1017.3056 -134.68459,720.26585 -365.69363,419.36255 -305.373,-24.572727 -4.9558397,-255.1706 299.3251,-488.73428 748.21809,-427.72609 981.37091,-123.93153 1217.4892,183.72703 1155.7935,637.57776 848.62152,873.28552 537.58533,1111.9585 78.776866,1049.5752 -159.48582,739.0258 -400.71343,424.61198 -337.64255,-39.154217 -23.715782,-279.97184 294.07565,-523.7541 762.7996,-459.99565 1006.1721,-142.69147 1252.5091,178.47758 1188.063,652.15927 867.38146,898.08675 542.83479,1146.9783 64.195339,1081.8447 -184.28706,757.78574 -435.73328,429.86146 -369.91214,-53.735755 -42.475724,-304.77307 288.82617,-558.77395 777.38115,-492.26524 1030.9734,-161.45141 1287.5289,173.22809 1220.3326,666.74084 886.1414,922.88798 548.08429,1181.9982 49.613768,1114.1143 -209.08829,776.54568 -473.04352,432.12239 -405.17102,-66.026745 -61.235665,-329.5743 286.59482,-596.10658 789.64976,-527.55373 1055.7746,-180.21136 1324.8839,171.02632 1255.6507,678.98707 904.90134,947.68922 550.25647,1219.3756 37.389908,1149.462 -233.88952,795.30562 -508.15298,437.25355 -437.55904,-80.518819 -79.995607,-354.37554 281.46365,-631.21606 804.14184,-559.94175 1080.5758,-198.9713 1359.9934,165.89515 1288.0388,693.47916 923.66128,972.49045 555.38765,1254.4851 22.897807,1181.8501 -258.69076,814.06556 -543.26248,442.38474 -469.94708,-95.010929 -98.755549,-379.17677 276.33246,-666.32556 818.63396,-592.3298 1105.3771,-217.73124 1395.1029,160.76395 1320.4268,707.97129 942.42123,997.29168 560.51885,1289.5946 8.405674,1214.2381 -283.49199,832.82551 -578.37201,447.51595 -502.33514,-109.50307 -117.51549,-403.978 271.20124,-701.4351 833.12611,-624.71786 1130.1783,-236.49118 1430.2125,155.63272 1352.8149,722.46344 961.18117,1022.0929 565.65008,1324.7042 -6.0864877,1246.6262 -308.29322,851.58545 -613.48156,452.64719 -534.72322,-123.99524 -136.27543,-428.77924 266.07,-736.54466 847.61828,-657.10595 1154.9795,-255.25112 1465.3221,150.50148 1385.203,736.95563 979.94111,1046.8941 570.78134,1359.8137 -20.578675,1279.0143 -333.09446,870.34539 -648.59114,457.77845 -567.11132,-138.48743 -155.03537,-453.58047 260.93874,-771.65424 862.11048,-689.49405 1179.7808,-274.01107 1500.4316,145.37021 1417.5911,751.44783 998.70105,1071.6954 575.9126,1394.9233 -35.070886,1311.4024 -357.89569,889.10533 -683.70074,462.90972 -599.49943,-152.97965 -173.79532,-478.3817 255.80746,-806.76384 876.60271,-721.88216 1204.582,-292.77101 1535.5412,140.23893 1449.9792,765.94006 1017.461,1096.4966 581.04389,1430.0329 -49.563118,1343.7905 -382.69692,907.86527 -718.81035,468.04101 -631.88755,-167.47188 -192.55526,-503.18294 250.67617,-841.87347 891.09495,-754.27029 1229.3832,-311.53095 1570.6509,135.10763 1482.3673,780.4323 1036.2209,1121.2978 586.17519,1465.1426 -64.055369,1376.1787 -407.49816,926.62522 -753.91999,473.17232 -664.27569,-181.96414 -211.3152,-527.98417 245.54486,-876.98311 905.58721,-786.65844 1254.1845,-330.29089 1605.7605,129.97632 1514.7555,794.92457 1054.9809,1146.0991 591.30651,1500.2522 -78.547638,1408.5668 -432.29939,945.38516 -789.02964,478.30363 -696.66385,-196.45641 -230.07514,-552.7854 240.41353,-912.09276 920.07948,-819.04659 1278.9857,-349.05083 1640.8702,124.845 1547.1436,809.41685 1073.7408,1170.9003 596.43784,1535.3619 -93.039923,1440.955 -457.10062,964.1451 -824.13931,483.43497 -729.05201,-210.9487 -248.83508,-577.58664 235.2822,-947.20244 934.57178,-851.43476 1303.7869,-367.81078 1675.9799,119.71366 1579.5318,823.90915 1092.5008,1195.7015"
       transform="matrix(1.9653797,0,0,1.9651878,972.00795,-699.37182)" />
    <path
       style="opacity:0.41970803000000001;fill:url(#linearGradient3793);fill-opacity:1;stroke:none;filter:url(#filter3972)"
       d="M 1049.5221,-497.62568 -355.99823,-480.84114 -450.93343,804.06122 1105.3852,-345.22483 z"
       id="path3781"
       inkscape:connector-curvature="0"
       transform="matrix(1.3011679,-0.10225068,0.20297725,0.65546904,-63.078327,187.18668)"
       sodipodi:nodetypes="ccccc" />
    <path
       style="opacity:0.66058391000000005;fill:url(#linearGradient3946);fill-opacity:1;stroke:none;filter:url(#filter3996)"
       d="M 11.428571,1311.4286 C -12.380972,913.33335 1983.8095,989.52382 2214.2857,-148.57143 L 2311.4286,1488.5714 768.57143,1600 z"
       id="path3809"
       inkscape:connector-curvature="0"
       transform="translate(0,-27.637817)"
       sodipodi:nodetypes="ccccc" />
    <path
       sodipodi:type="spiral"
       style="opacity:0.44160584;fill:none;stroke:url(#linearGradient3820);stroke-width:5.08832358999999990;stroke-linecap:butt;stroke-linejoin:miter;stroke-miterlimit:4;stroke-opacity:1;stroke-dasharray:none"
       id="path3792"
       sodipodi:cx="417.14285"
       sodipodi:cy="302.85715"
       sodipodi:expansion="2"
       sodipodi:revolution="23.609301"
       sodipodi:radius="1119.4996"
       sodipodi:argument="-17.926352"
       sodipodi:t0="0"
       d="m 417.14285,302.85715 c 0.0336,0.0444 -0.0802,0.0761 -0.10011,0.0757 -0.22819,-0.004 -0.26228,-0.31635 -0.20279,-0.47617 0.17924,-0.48162 0.82054,-0.50153 1.20392,-0.28109 0.80963,0.46554 0.79904,1.59194 0.31061,2.28334 -0.86004,1.21742 -2.63161,1.15606 -3.71445,0.29136 -1.70665,-1.36285 -1.57302,-3.93992 -0.22333,-5.49722 1.97423,-2.27792 5.51708,-2.05012 7.63168,-0.10654 2.93144,2.69435 2.58742,7.3632 -0.059,10.11782 -3.52332,3.66733 -9.47834,3.18497 -12.95563,-0.27338 -4.48565,-4.4612 -3.8428,-11.86254 0.53648,-16.14512 5.50804,-5.38641 14.51585,-4.5609 19.6863,0.84837 6.36965,6.66387 5.33929,17.43826 -1.20903,23.57915 -7.9287,7.43536 -20.62981,6.17798 -27.82368,-1.61847 -8.58356,-9.30254 -7.07695,-24.09049 2.07667,-32.41988 10.78542,-9.81425 27.82032,-8.03623 37.36777,2.58365 11.12743,12.37734 9.0558,31.8193 -3.1394,42.66733 -14.0783,12.52311 -36.08744,10.13566 -48.31857,-3.74392 -14.00129,-15.88831 -11.27583,-40.62474 4.39721,-54.3215 17.80737,-15.56195 45.4312,-12.47628 60.6761,5.09929 17.20513,19.83548 13.73704,50.50682 -5.85013,67.38237 -21.97265,18.9308 -55.85161,15.05809 -74.44033,-6.64974 -20.73896,-24.21888 -16.43944,-61.46557 7.49813,-81.84996 26.57417,-22.62964 67.3487,-17.88109 89.61128,8.39528 24.6028,29.03852 19.38303,73.501 -9.34122,97.72427 -31.61192,26.65847 -79.92246,20.94528 -106.18894,-10.33591 -28.79664,-34.29441 -22.56781,-86.61311 11.37939,-115.0053 37.08595,-31.01731 93.57292,-24.25065 124.17332,12.47164 33.32049,39.98655 25.99379,100.80191 -13.61266,133.69303 -42.99621,35.70615 -108.30006,27.79721 -143.56441,-14.80245 -38.17433,-46.11495 -29.66094,-116.0674 16.04102,-153.78748 49.34275,-40.725 124.10391,-31.58497 164.36222,17.32836 43.35817,52.67961 33.56929,132.40959 -18.66447,175.28864 -56.12554,46.07385 -140.98444,35.61391 -186.56674,-20.04936 -48.87202,-59.68053 -37.71882,-149.82847 21.48301,-198.19651 63.34461,-51.7527 158.94168,-39.88404 210.17798,22.96544 54.71587,67.11773 42.10954,168.32406 -24.49665,222.51111 C 444.28444,490.36488 337.30876,476.99867 280.08845,406.5267 219.19871,331.5355 233.347,218.63035 307.79382,158.29428 386.88535,94.193864 505.88007,109.14643 569.4144,187.67717 636.808,270.97811 621.02895,396.2225 538.30522,463.03761 450.68581,533.80689 319.03163,517.17915 248.85326,430.15336 174.62579,338.10642 192.12442,199.88233 283.56134,126.25819 380.14489,48.490032 525.09898,66.881767 602.2514,162.83889 683.64274,264.06811 664.33571,415.91231 563.74932,496.6755 457.76535,581.77254 298.87093,561.52799 214.41446,456.20327 125.52923,345.35549 146.73349,179.25075 256.90562,91.018489 372.72628,-1.7374285 546.20146,20.448743 638.292,135.57736 735.00111,256.47996 711.81082,437.48568 591.61666,533.51701 465.52304,634.26181 276.82666,610.0452 176.77205,484.67642 71.90905,353.28272 97.174195,156.73558 227.82666,52.575179 364.62951,-56.488519 569.18752,-30.15264 677.53621,105.89258 790.88311,248.21365 763.45429,460.94263 621.90725,573.56212 473.95889,691.27472 252.89882,662.73076 135.92603,515.57283 13.765237,361.8881 43.446543,132.33684 196.32444,10.928259 355.85459,-115.76324 594.05715,-84.922382 719.98403,73.784549 851.28874,239.2692 819.26612,486.28316 654.62109,616.81085 483.07288,752.81126 227.0874,719.58468 91.876407,548.89248 -48.902207,371.17163 -14.449468,106.05453 162.39898,-33.92227 346.40153,-179.56159 620.81036,-143.86048 765.63547,39.253275 916.218,229.6466 879.24631,513.50727 689.75818,663.26318 492.86501,818.87142 199.39239,780.60696 44.623171,584.63537 -116.09328,381.1333 -76.513837,77.888629 126.05027,-81.976407 336.27032,-247.88357 649.44716,-206.96694 814.49051,2.298753 985.67088,219.34585 943.39486,542.61496 727.31851,712.91912 503.33529,889.45522 169.81381,845.7976 -5.8336739,622.80152 -187.80798,391.77312 -142.74657,47.839149 87.278311,-133.23415 325.46097,-320.72918 679.96753,-274.24176 866.54916,-37.079016 1059.6474,208.36697 1011.7118,573.60623 767.30209,765.77868 514.48371,964.56264 138.35164,915.1566 -59.494128,663.39091 -264.04632,403.09107 -213.14765,15.906086 46.083107,-187.69551 313.97348,-398.09843 712.37149,-345.68493 921.81141,-78.880032 1138.1476,196.70994 1084.197,606.48108 809.70892,821.84184 526.31028,1044.1937 105.00589,988.68395 -116.35819,706.40355 -344.80828,415.08717 -287.71709,-17.910561 2.4646551,-245.36048 301.80784,-479.9913 746.65903,-421.29647 980.27728,-123.1043 1221.1713,184.37477 1160.8507,641.23952 854.53899,881.10861 538.81498,1128.3484 69.776557,1066.3797 -176.42586,751.83944 -430.09388,427.76142 -366.4549,-53.610792 -43.577044,-306.22905 291.86923,-568.68079 780.55666,-503.98342 1041.9468,-169.75181 1311.0494,174.34164 1244.6547,675.55032 901.79232,943.57899 548.94167,1219.4158 35.0533,1151.3018 -239.69715,799.69857 -522.35137,437.9807 -452.4961,-88.745783 -92.04199,-370.30124 278.65313,-659.85607 818.37616,-588.23756 1106.8198,-218.82257 1403.3585,160.95983 1329.9548,713.83784 951.46889,1009.253 562.48919,1312.8587 -3.7022162,1237.6478 -306.17204,849.98096 -616.92806,451.69394 -539.88798,-127.9693 -142.93018,-437.57703 264.77418,-755.56656 858.06769,-676.67534 1174.8965,-270.31657 1500.2028,146.91517 1419.4385,753.99737 1003.5687,1078.1306 576.69957,1410.8368 -44.329753,1328.1774 -375.85054,902.68659 -716.03993,466.07003 -631.4635,-169.06485 -196.24163,-508.05643 250.23238,-855.81223 899.63123,-769.29678 1246.1768,-324.23382 1601.5823,132.20766 1513.1058,796.02892 1058.0918,1150.2118 591.57279,1513.3501 -86.82931,1422.8907 -448.73265,957.81546 -819.68701,481.10896 -727.22266,-212.03241 -251.97631,-581.73944 -49.795709,-739.02122 204.96791,-822.3604 460.97579,-815.78404"
       transform="matrix(1.9653797,0,0,1.9651878,-409.59147,779.56615)" />
  </g>
</svg>
