<?xml version="1.0" encoding="UTF-8" standalone="no"?>
<!-- Created with Inkscape (http://www.inkscape.org/) -->

<svg
   xmlns:dc="http://purl.org/dc/elements/1.1/"
   xmlns:cc="http://creativecommons.org/ns#"
   xmlns:rdf="http://www.w3.org/1999/02/22-rdf-syntax-ns#"
   xmlns:svg="http://www.w3.org/2000/svg"
   xmlns="http://www.w3.org/2000/svg"
   xmlns:xlink="http://www.w3.org/1999/xlink"
   xmlns:sodipodi="http://sodipodi.sourceforge.net/DTD/sodipodi-0.dtd"
   xmlns:inkscape="http://www.inkscape.org/namespaces/inkscape"
   width="1920"
   height="1080"
   id="svg2"
   version="1.1"
   inkscape:version="0.48.5 r10040"
   sodipodi:docname="cover.svg"
   inkscape:export-filename="/home/brice/Projets/agrilibre/Thinny/assets/images/cover.png"
   inkscape:export-xdpi="90"
   inkscape:export-ydpi="90">
  <defs
     id="defs4">
    <linearGradient
       inkscape:collect="always"
       id="linearGradient3814">
      <stop
         style="stop-color:#ffffff;stop-opacity:1;"
         offset="0"
         id="stop3816" />
      <stop
         style="stop-color:#ffffff;stop-opacity:0;"
         offset="1"
         id="stop3818" />
    </linearGradient>
    <linearGradient
       id="linearGradient3940">
      <stop
         style="stop-color:#191205;stop-opacity:1;"
         offset="0"
         id="stop3942" />
      <stop
         style="stop-color:#d89d30;stop-opacity:1;"
         offset="1"
         id="stop3944" />
    </linearGradient>
    <linearGradient
       id="linearGradient3892">
      <stop
         style="stop-color:#000000;stop-opacity:1;"
         offset="0"
         id="stop3894" />
      <stop
         style="stop-color:#6c6c6c;stop-opacity:1;"
         offset="1"
         id="stop3896" />
    </linearGradient>
    <linearGradient
       id="linearGradient3844">
      <stop
         style="stop-color:#000000;stop-opacity:0;"
         offset="0"
         id="stop3846" />
      <stop
         id="stop3872"
         offset="0.5"
         style="stop-color:#000000;stop-opacity:0.23703703;" />
      <stop
         style="stop-color:#000000;stop-opacity:0.86666667;"
         offset="1"
         id="stop3848" />
    </linearGradient>
    <linearGradient
       id="linearGradient3787">
      <stop
         style="stop-color:#4bb85b;stop-opacity:1;"
         offset="0"
         id="stop3789" />
      <stop
         style="stop-color:#dcc827;stop-opacity:1;"
         offset="1"
         id="stop3791" />
    </linearGradient>
    <linearGradient
       id="linearGradient3755">
      <stop
         style="stop-color:#173414;stop-opacity:1;"
         offset="0"
         id="stop3757" />
      <stop
         style="stop-color:#a0ee90;stop-opacity:1;"
         offset="1"
         id="stop3759" />
    </linearGradient>
    <linearGradient
       inkscape:collect="always"
       xlink:href="#linearGradient3755"
       id="linearGradient3761"
       x1="-280.5"
       y1="520"
       x2="2437.6428"
       y2="520"
       gradientUnits="userSpaceOnUse" />
    <filter
       inkscape:collect="always"
       id="filter3767"
       x="-0.11196469"
       width="1.2239294"
       y="-0.19573238"
       height="1.3914648">
      <feGaussianBlur
         inkscape:collect="always"
         stdDeviation="126.76002"
         id="feGaussianBlur3769" />
    </filter>
    <linearGradient
       inkscape:collect="always"
       xlink:href="#linearGradient3787"
       id="linearGradient3793"
       x1="316.10385"
       y1="352.33362"
       x2="40.329662"
       y2="-318.64151"
       gradientUnits="userSpaceOnUse" />
    <radialGradient
       inkscape:collect="always"
       xlink:href="#linearGradient3844"
       id="radialGradient3850"
       cx="948.57141"
       cy="527.14288"
       fx="948.57141"
       fy="527.14288"
       r="1097.1428"
       gradientTransform="matrix(1.0494792,0.01041667,-0.00611271,0.6158551,-43.712252,192.61829)"
       gradientUnits="userSpaceOnUse" />
    <linearGradient
       inkscape:collect="always"
       xlink:href="#linearGradient3892"
       id="linearGradient3898"
       x1="-422.84278"
       y1="547.14286"
       x2="2342.8427"
       y2="547.14286"
       gradientUnits="userSpaceOnUse" />
    <linearGradient
       inkscape:collect="always"
       xlink:href="#linearGradient3787-9"
       id="linearGradient3793-1"
       x1="369.57248"
       y1="657.08167"
       x2="3.4341908"
       y2="312.00653"
       gradientUnits="userSpaceOnUse" />
    <linearGradient
       id="linearGradient3787-9">
      <stop
         style="stop-color:#4bb85b;stop-opacity:1;"
         offset="0"
         id="stop3789-4" />
      <stop
         style="stop-color:#dcc827;stop-opacity:1;"
         offset="1"
         id="stop3791-1" />
    </linearGradient>
    <linearGradient
       inkscape:collect="always"
       xlink:href="#linearGradient3940"
       id="linearGradient3946"
       x1="1849.2045"
       y1="1092.8572"
       x2="1630.7954"
       y2="752.85724"
       gradientUnits="userSpaceOnUse" />
    <filter
       inkscape:collect="always"
       id="filter3972"
       x="-0.15174214"
       width="1.3034843"
       y="-0.15287573"
       height="1.3057515">
      <feGaussianBlur
         inkscape:collect="always"
         stdDeviation="95.795121"
         id="feGaussianBlur3974" />
    </filter>
    <filter
       inkscape:collect="always"
       id="filter3996"
       x="-0.14215155"
       width="1.2843031"
       y="-0.29568992"
       height="1.5913798">
      <feGaussianBlur
         inkscape:collect="always"
         stdDeviation="136.22857"
         id="feGaussianBlur3998" />
    </filter>
    <filter
       inkscape:collect="always"
       id="filter3810">
      <feGaussianBlur
         inkscape:collect="always"
         stdDeviation="10.989769"
         id="feGaussianBlur3812" />
    </filter>
    <linearGradient
       inkscape:collect="always"
       xlink:href="#linearGradient3814"
       id="linearGradient3820"
       x1="-718.85412"
       y1="290.49767"
       x2="1253.1805"
       y2="-445.01758"
       gradientUnits="userSpaceOnUse" />
    <linearGradient
       inkscape:collect="always"
       xlink:href="#linearGradient3814-9"
       id="linearGradient3820-6"
       x1="-718.85413"
       y1="290.49768"
       x2="1253.1805"
       y2="-445.01758"
       gradientUnits="userSpaceOnUse" />
    <linearGradient
       id="linearGradient3814-9">
      <stop
         style="stop-color:#84b67f;stop-opacity:1;"
         offset="0"
         id="stop3816-4" />
      <stop
         style="stop-color:#ffffff;stop-opacity:0;"
         offset="1"
         id="stop3818-0" />
    </linearGradient>
    <filter
       color-interpolation-filters="sRGB"
       inkscape:collect="always"
       id="filter3810-8">
      <feGaussianBlur
         inkscape:collect="always"
         stdDeviation="10.989769"
         id="feGaussianBlur3812-9" />
    </filter>
    <linearGradient
       y2="-445.01758"
       x2="1253.1805"
       y1="290.49768"
       x1="-718.85413"
       gradientUnits="userSpaceOnUse"
       id="linearGradient3839"
       xlink:href="#linearGradient3814-9"
       inkscape:collect="always" />
  </defs>
  <sodipodi:namedview
     id="base"
     pagecolor="#ffffff"
     bordercolor="#666666"
     borderopacity="1.0"
     inkscape:pageopacity="0.0"
     inkscape:pageshadow="2"
     inkscape:zoom="0.49497475"
     inkscape:cx="878.95171"
     inkscape:cy="464.80056"
     inkscape:document-units="px"
     inkscape:current-layer="layer1"
     showgrid="false"
     borderlayer="true"
     inkscape:showpageshadow="false"
     inkscape:window-width="1920"
     inkscape:window-height="983"
     inkscape:window-x="0"
     inkscape:window-y="25"
     inkscape:window-maximized="1" />
  <metadata
     id="metadata7">
    <rdf:RDF>
      <cc:Work
         rdf:about="">
        <dc:format>image/svg+xml</dc:format>
        <dc:type
           rdf:resource="http://purl.org/dc/dcmitype/StillImage" />
        <dc:title />
      </cc:Work>
    </rdf:RDF>
  </metadata>
  <g
     inkscape:label="Calque 1"
     inkscape:groupmode="layer"
     id="layer1"
     transform="translate(0,27.637817)">
    <rect
       style="fill:url(#linearGradient3761);fill-rule:evenodd;stroke:none;stroke-width:1px;stroke-linecap:butt;stroke-linejoin:miter;stroke-opacity:1;fill-opacity:1.0;filter:url(#filter3767)"
       id="rect3753"
       width="2717.1428"
       height="1554.2858"
       x="-280"
       y="-257.14285"
       transform="translate(0,-27.637817)" />
    <path
       style="opacity:0.41970803000000001;fill:url(#linearGradient3793);fill-opacity:1;stroke:none;filter:url(#filter3972)"
       d="M 1049.5221,-497.62568 -355.99823,-480.84114 -450.93343,804.06122 1105.3852,-345.22483 z"
       id="path3781"
       inkscape:connector-curvature="0"
       transform="matrix(1.3011679,-0.10225068,0.20297725,0.65546904,-63.078327,187.18668)"
       sodipodi:nodetypes="ccccc" />
    <path
       style="opacity:0.66058391000000005;fill:url(#linearGradient3946);fill-opacity:1;stroke:none;filter:url(#filter3996)"
       d="M 11.428571,1311.4286 C -12.380972,913.33335 1983.8095,989.52382 2214.2857,-148.57143 L 2311.4286,1488.5714 768.57143,1600 z"
       id="path3809"
       inkscape:connector-curvature="0"
       transform="translate(0,-27.637817)"
       sodipodi:nodetypes="ccccc" />
    <path
       sodipodi:type="spiral"
       style="opacity:0.62043797999999994;fill:none;stroke:url(#linearGradient3820);stroke-width:5.08832358999999990;stroke-linecap:butt;stroke-linejoin:miter;stroke-miterlimit:4;stroke-opacity:1;stroke-dasharray:none;filter:url(#filter3810)"
       id="path3792"
       sodipodi:cx="417.14285"
       sodipodi:cy="302.85715"
       sodipodi:expansion="2"
       sodipodi:revolution="23.609301"
       sodipodi:radius="1119.4996"
       sodipodi:argument="-17.926352"
       sodipodi:t0="0"
       d="m 417.14285,302.85715 c 0.0336,0.0444 -0.0802,0.0761 -0.10011,0.0757 -0.22819,-0.004 -0.26228,-0.31635 -0.20279,-0.47617 0.17924,-0.48162 0.82054,-0.50153 1.20392,-0.28109 0.80963,0.46554 0.79904,1.59194 0.31061,2.28334 -0.86004,1.21742 -2.63161,1.15606 -3.71445,0.29136 -1.70665,-1.36285 -1.57302,-3.93992 -0.22333,-5.49722 1.97423,-2.27792 5.51708,-2.05012 7.63168,-0.10654 2.93144,2.69435 2.58742,7.3632 -0.059,10.11782 -3.52332,3.66733 -9.47834,3.18497 -12.95563,-0.27338 -4.48565,-4.4612 -3.8428,-11.86254 0.53648,-16.14512 5.50804,-5.38641 14.51585,-4.5609 19.6863,0.84837 6.36965,6.66387 5.33929,17.43826 -1.20903,23.57915 -7.9287,7.43536 -20.62981,6.17798 -27.82368,-1.61847 -8.58356,-9.30254 -7.07695,-24.09049 2.07667,-32.41988 10.78542,-9.81425 27.82032,-8.03623 37.36777,2.58365 11.12743,12.37734 9.0558,31.8193 -3.1394,42.66733 -14.0783,12.52311 -36.08744,10.13566 -48.31857,-3.74392 -14.00129,-15.88831 -11.27583,-40.62474 4.39721,-54.3215 17.80737,-15.56195 45.4312,-12.47628 60.6761,5.09929 17.20513,19.83548 13.73704,50.50682 -5.85013,67.38237 -21.97265,18.9308 -55.85161,15.05809 -74.44033,-6.64974 -20.73896,-24.21888 -16.43944,-61.46557 7.49813,-81.84996 26.57417,-22.62964 67.3487,-17.88109 89.61128,8.39528 24.6028,29.03852 19.38303,73.501 -9.34122,97.72427 -31.61192,26.65847 -79.92246,20.94528 -106.18894,-10.33591 -28.79664,-34.29441 -22.56781,-86.61311 11.37939,-115.0053 37.08595,-31.01731 93.57292,-24.25065 124.17332,12.47164 33.32049,39.98655 25.99379,100.80191 -13.61266,133.69303 -42.99621,35.70615 -108.30006,27.79721 -143.56441,-14.80245 -38.17433,-46.11495 -29.66094,-116.0674 16.04102,-153.78748 49.34275,-40.725 124.10391,-31.58497 164.36222,17.32836 43.35817,52.67961 33.56929,132.40959 -18.66447,175.28864 -56.12554,46.07385 -140.98444,35.61391 -186.56674,-20.04936 -48.87202,-59.68053 -37.71882,-149.82847 21.48301,-198.19651 63.34461,-51.7527 158.94168,-39.88404 210.17798,22.96544 54.71587,67.11773 42.10954,168.32406 -24.49665,222.51111 C 444.28444,490.36488 337.30876,476.99867 280.08845,406.5267 219.19871,331.5355 233.347,218.63035 307.79382,158.29428 386.88535,94.193864 505.88007,109.14643 569.4144,187.67717 636.808,270.97811 621.02895,396.2225 538.30522,463.03761 450.68581,533.80689 319.03163,517.17915 248.85326,430.15336 174.62579,338.10642 192.12442,199.88233 283.56134,126.25819 380.14489,48.490032 525.09898,66.881767 602.2514,162.83889 683.64274,264.06811 664.33571,415.91231 563.74932,496.6755 457.76535,581.77254 298.87093,561.52799 214.41446,456.20327 125.52923,345.35549 146.73349,179.25075 256.90562,91.018489 372.72628,-1.7374285 546.20146,20.448743 638.292,135.57736 735.00111,256.47996 711.81082,437.48568 591.61666,533.51701 465.52304,634.26181 276.82666,610.0452 176.77205,484.67642 71.90905,353.28272 97.174195,156.73558 227.82666,52.575179 364.62951,-56.488519 569.18752,-30.15264 677.53621,105.89258 790.88311,248.21365 763.45429,460.94263 621.90725,573.56212 473.95889,691.27472 252.89882,662.73076 135.92603,515.57283 13.765237,361.8881 43.446543,132.33684 196.32444,10.928259 355.85459,-115.76324 594.05715,-84.922382 719.98403,73.784549 851.28874,239.2692 819.26612,486.28316 654.62109,616.81085 483.07288,752.81126 227.0874,719.58468 91.876407,548.89248 -48.902207,371.17163 -14.449468,106.05453 162.39898,-33.92227 346.40153,-179.56159 620.81036,-143.86048 765.63547,39.253275 916.218,229.6466 879.24631,513.50727 689.75818,663.26318 492.86501,818.87142 199.39239,780.60696 44.623171,584.63537 -116.09328,381.1333 -76.513837,77.888629 126.05027,-81.976407 336.27032,-247.88357 649.44716,-206.96694 814.49051,2.298753 985.67088,219.34585 943.39486,542.61496 727.31851,712.91912 503.33529,889.45522 169.81381,845.7976 -5.8336739,622.80152 -187.80798,391.77312 -142.74657,47.839149 87.278311,-133.23415 325.46097,-320.72918 679.96753,-274.24176 866.54916,-37.079016 1059.6474,208.36697 1011.7118,573.60623 767.30209,765.77868 514.48371,964.56264 138.35164,915.1566 -59.494128,663.39091 -264.04632,403.09107 -213.14765,15.906086 46.083107,-187.69551 313.97348,-398.09843 712.37149,-345.68493 921.81141,-78.880032 1138.1476,196.70994 1084.197,606.48108 809.70892,821.84184 526.31028,1044.1937 105.00589,988.68395 -116.35819,706.40355 -344.80828,415.08717 -287.71709,-17.910561 2.4646551,-245.36048 301.80784,-479.9913 746.65903,-421.29647 980.27728,-123.1043 1221.1713,184.37477 1160.8507,641.23952 854.53899,881.10861 538.81498,1128.3484 69.776557,1066.3797 -176.42586,751.83944 -430.09388,427.76142 -366.4549,-53.610792 -43.577044,-306.22905 291.86923,-568.68079 780.55666,-503.98342 1041.9468,-169.75181 1311.0494,174.34164 1244.6547,675.55032 901.79232,943.57899 548.94167,1219.4158 35.0533,1151.3018 -239.69715,799.69857 -522.35137,437.9807 -452.4961,-88.745783 -92.04199,-370.30124 278.65313,-659.85607 818.37616,-588.23756 1106.8198,-218.82257 1403.3585,160.95983 1329.9548,713.83784 951.46889,1009.253 562.48919,1312.8587 -3.7022162,1237.6478 -306.17204,849.98096 -616.92806,451.69394 -539.88798,-127.9693 -142.93018,-437.57703 264.77418,-755.56656 858.06769,-676.67534 1174.8965,-270.31657 1500.2028,146.91517 1419.4385,753.99737 1003.5687,1078.1306 576.69957,1410.8368 -44.329753,1328.1774 -375.85054,902.68659 -716.03993,466.07003 -631.4635,-169.06485 -196.24163,-508.05643 250.23238,-855.81223 899.63123,-769.29678 1246.1768,-324.23382 1601.5823,132.20766 1513.1058,796.02892 1058.0918,1150.2118 591.57279,1513.3501 -86.82931,1422.8907 -448.73265,957.81546 -819.68701,481.10896 -727.22266,-212.03241 -251.97631,-581.73944 -49.795709,-739.02122 204.96791,-822.3604 460.97579,-815.78404"
       transform="matrix(1.9653797,0,0,1.9651878,-409.59147,779.56615)" />
    <path
       sodipodi:type="spiral"
       style="opacity:0.13138685;fill:none;stroke:url(#linearGradient3839);stroke-width:5.08832359;stroke-linecap:butt;stroke-linejoin:miter;stroke-miterlimit:4;stroke-opacity:1;stroke-dasharray:none;filter:url(#filter3810-8)"
       id="path3792-7"
       sodipodi:cx="417.14285"
       sodipodi:cy="302.85715"
       sodipodi:expansion="1.5"
       sodipodi:revolution="12"
       sodipodi:radius="1119.4996"
       sodipodi:argument="-17.926352"
       sodipodi:t0="0"
       d="m 417.14285,302.85715 c 1.03764,1.37178 -1.91934,2.15502 -2.68481,2.03082 -4.36055,-0.70754 -4.67487,-6.5041 -3.05922,-9.62462 3.7583,-7.2589 13.7266,-7.17479 19.69473,-2.95867 10.52467,7.43505 9.91079,22.78306 2.29589,32.03097 -11.67623,14.18019 -33.3501,12.88827 -46.2637,1.22679 -18.19583,-16.43152 -16.09632,-45.23239 0.17023,-62.16381 21.65767,-22.54291 58.29584,-19.52219 79.5703,1.84714 27.19779,27.31907 23.15407,72.44085 -3.77113,98.36174 -33.3864,32.14109 -87.58959,26.98155 -118.44222,-5.91813 -37.35664,-39.83523 -30.99547,-103.67902 8.26966,-139.73345 46.64487,-42.83073 120.65673,-35.18779 162.16994,10.81095 48.55155,53.79759 39.55138,138.47824 -13.52993,185.69582 -61.27795,54.50876 -157.10515,44.07987 -210.26271,-16.41647 -60.69327,-69.07241 -48.76753,-176.5039 19.46194,-235.82815 77.16894,-67.096941 196.64483,-53.60922 262.35453,22.6589 73.71246,85.55678 58.6002,217.50143 -26.00081,289.80815 -94.22623,80.53321 -239.04988,63.73618 -318.15868,-29.4819 C 141.4037,342.03472 159.94365,183.93465 262.05389,97.824659 374.42946,3.0578733 546.19174,23.397043 639.49653,134.66623 741.66553,256.50629 719.47258,442.30588 598.78521,542.99406 467.23001,652.74915 267.02787,628.64939 158.77239,498.29158 41.251684,356.77688 67.309844,141.81601 207.58393,25.81366 359.29666,-99.648096 589.36399,-71.58128 713.28872,78.848962 846.86317,240.99283 816.73866,486.50646 655.91793,618.52531 483.1149,760.38052 221.82246,728.15042 81.541319,556.71006 -68.759371,373.02461 -34.37685,95.62775 147.90746,-53.080517 342.69411,-211.98825 636.51451,-175.40747 793.81158,17.94053 961.48494,224.04295 922.661,534.59992 718.03384,700.6445 500.40507,877.23922 172.80428,836.12811 -2.1436872,620.01037 -187.81286,390.64845 -144.37138,45.702036 83.444536,-138.30253 324.74285,-333.19667 687.3315,-287.38244 880.54332,-47.664363 1084.8106,205.77017 1036.5819,586.29275 784.76113,788.86008 518.99377,1002.6462 120.25024,951.96217 -91.818532,687.84147 -315.26715,409.54775 -262.08745,-7.6992875 14.527336,-229.41323 305.53799,-462.66584 741.56683,-406.95084 973.06758,-117.65079 1216.2636,186.26457 1157.9743,641.34943 855.80068,882.7766 538.79552,1136.0537 64.384321,1075.1516 -187.10694,759.91873 -452.89748,426.76239 -389.93067,-62.066236 -58.572895,-326.05404 288.15356,-602.28584 796.62965,-536.65815 1071.0421,-191.75986 1357.8485,168.71593 1289.5235,697.09632 930.90502,982.0669 556.50299,1279.5796 7.9647331,1208.5213 -287.69579,836.00531 -596.04493,447.50235 -522.21785,-121.44419 -135.62919,-427.92488 267.14726,-747.23897 856.74945,-670.60807 1174.179,-269.7738 1504.5851,147.44663 1425.1157,757.94892 1009.865,1086.4545 578.03206,1428.0782 -53.611927,1345.7362 -393.31922,915.9001 -746.2848,469.28808 -661.03642,-183.73648 -216.44797,-534.76986 245.10786,-899.20017 919.74923,-811.01197 1282.2317,-351.50613 1658.2483,125.15646 1567.0873,821.64832 1092.5008,1195.7015"
       transform="matrix(1.9653797,0,0,1.9651878,1111.409,-729.6764)" />
  </g>
</svg>
