<?xml version="1.0" encoding="UTF-8" standalone="no"?>
<!-- Created with Inkscape (http://www.inkscape.org/) -->

<svg
   xmlns:dc="http://purl.org/dc/elements/1.1/"
   xmlns:cc="http://creativecommons.org/ns#"
   xmlns:rdf="http://www.w3.org/1999/02/22-rdf-syntax-ns#"
   xmlns:svg="http://www.w3.org/2000/svg"
   xmlns="http://www.w3.org/2000/svg"
   xmlns:sodipodi="http://sodipodi.sourceforge.net/DTD/sodipodi-0.dtd"
   xmlns:inkscape="http://www.inkscape.org/namespaces/inkscape"
   width="4700"
   height="1200"
   id="svg3814"
   version="1.1"
   inkscape:version="0.91 r13725"
   sodipodi:docname="icon.svg"
   inkscape:export-filename="icon.png"
   inkscape:export-xdpi="36"
   inkscape:export-ydpi="36">
  <defs
     id="defs3816" />
  <sodipodi:namedview
     id="base"
     pagecolor="#ffffff"
     bordercolor="#666666"
     borderopacity="1.0"
     inkscape:pageopacity="0.0"
     inkscape:pageshadow="2"
     inkscape:zoom="0.12374369"
     inkscape:cx="1260.132"
     inkscape:cy="1820.6509"
     inkscape:document-units="px"
     inkscape:current-layer="layer1"
     showgrid="false"
     fit-margin-top="0"
     fit-margin-left="0"
     fit-margin-right="0"
     fit-margin-bottom="0"
     inkscape:window-width="1920"
     inkscape:window-height="1057"
     inkscape:window-x="0"
     inkscape:window-y="0"
     inkscape:window-maximized="1"
     showguides="true"
     inkscape:guide-bbox="true"
     borderlayer="true"
     inkscape:showpageshadow="false">
    <sodipodi:guide
       orientation="1,0"
       position="100,0"
       id="guide3027" />
    <sodipodi:guide
       orientation="1,0"
       position="4600,0"
       id="guide3029" />
    <sodipodi:guide
       orientation="0,1"
       position="0,100"
       id="guide4059" />
    <sodipodi:guide
       orientation="0,1"
       position="0,1100"
       id="guide4061" />
  </sodipodi:namedview>
  <metadata
     id="metadata3819">
    <rdf:RDF>
      <cc:Work
         rdf:about="">
        <dc:format>image/svg+xml</dc:format>
        <dc:type
           rdf:resource="http://purl.org/dc/dcmitype/StillImage" />
        <dc:title />
      </cc:Work>
    </rdf:RDF>
  </metadata>
  <g
     inkscape:label="Calque 1"
     inkscape:groupmode="layer"
     id="layer1"
     transform="translate(-1127.1429,309.06637)">
    <g
       id="g3801"
       transform="translate(-5220.4684,-2707.2089)">
      <text
         sodipodi:linespacing="125%"
         id="text3002"
         y="1259.3239"
         x="903.50024"
         style="font-size:1067.83447266px;font-style:normal;font-variant:normal;font-weight:200;font-stretch:normal;text-align:start;line-height:125%;letter-spacing:0px;word-spacing:0px;writing-mode:lr-tb;text-anchor:start;fill:#489444;fill-opacity:1;stroke:none;font-family:Source Sans Pro;-inkscape-font-specification:Source Sans Pro Ultra-Light"
         xml:space="preserve"><tspan
           style="font-size:1067.83447266px;font-style:normal;font-variant:normal;font-weight:200;font-stretch:normal;text-align:start;line-height:125%;writing-mode:lr-tb;text-anchor:start;fill:#489444;fill-opacity:1;font-family:Source Sans Pro;-inkscape-font-specification:Source Sans Pro Ultra-Light"
           y="1259.3239"
           x="903.50024"
           id="tspan3004"
           sodipodi:role="line"><tspan
   id="tspan3799"
   style="font-weight:bold">AGRI</tspan>LIBRE</tspan></text>
      <text
         sodipodi:linespacing="125%"
         id="text3002-0"
         y="1560.0392"
         x="899.95508"
         style="font-size:302.73852539px;font-style:normal;font-variant:normal;font-weight:normal;font-stretch:normal;text-align:start;line-height:125%;letter-spacing:0px;word-spacing:0px;writing-mode:lr-tb;text-anchor:start;fill:#5f5f5f;fill-opacity:1;stroke:none;font-family:Source Sans Pro;-inkscape-font-specification:Source Sans Pro"
         xml:space="preserve"><tspan
           style="font-size:302.73852539px;font-style:normal;font-variant:normal;font-weight:normal;font-stretch:normal;text-align:start;line-height:125%;writing-mode:lr-tb;text-anchor:start;fill:#5f5f5f;fill-opacity:1;font-family:Source Sans Pro;-inkscape-font-specification:Source Sans Pro"
           y="1560.0392"
           x="899.95508"
           id="tspan3004-1"
           sodipodi:role="line">OUTILS LIBRES POUR L'AGRICULTURE</tspan></text>
    </g>
    <path
       style="font-style:normal;font-variant:normal;font-weight:bold;font-stretch:normal;font-size:1067.83447266px;line-height:125%;font-family:'Source Sans Pro';-inkscape-font-specification:'Source Sans Pro Ultra-Light';text-align:start;letter-spacing:0px;word-spacing:0px;writing-mode:lr-tb;text-anchor:start;fill:#ffffff;fill-opacity:1;stroke:none"
       d="m 2182.2945,-209.06637 c -44.9239,6.9e-4 -87.4744,7.95367 -127.6329,23.83083 -39.4784,15.8785 -74.1945,38.99915 -104.1434,69.37352 -29.2682,30.37555 -52.7411,67.663944 -70.4381,111.845227 -17.0165,43.491895 -25.5391,93.179055 -25.5388,149.096253 -2e-4,56.60821 8.1631,106.64907 24.4989,150.14039 17.0164,42.80125 40.1604,78.70524 69.4289,107.69939 29.268,28.99434 63.2964,51.0844 102.094,66.27182 39.4779,14.49718 81.6998,21.74257 126.6236,21.74257 46.9649,0 89.8443,-7.92235 128.6422,-23.80012 38.797,-15.87787 70.1041,-35.19889 93.9278,-57.98017 l 0,-310.660698 -243.001,0 0,124.251998 110.2603,0 0,115.99105 c -8.1683,6.90351 -18.6932,12.0569 -31.6252,15.50846 -12.933,3.45185 -26.2094,5.19006 -39.8223,5.18996 -62.6209,1e-4 -109.5969,-18.99784 -140.9069,-56.96674 -30.6297,-38.65886 -45.9395,-92.82249 -45.9393,-162.54717 -2e-4,-33.82632 4.0661,-64.223108 12.2342,-91.146788 8.8482,-26.92283 21.1082,-49.689701 36.7636,-68.329382 15.6548,-18.638679 34.0449,-32.806409 55.1455,-42.471703 21.7807,-10.354561 45.5821,-15.507917 71.4475,-15.508467 28.5874,5.5e-4 51.7312,4.477032 69.4289,13.450908 18.3771,8.974956 35.7507,21.404431 52.0869,37.28174 l 82.703,-94.248488 c -21.7816,-22.78061 -50.0392,-43.13237 -84.7521,-61.08186 -34.0336,-17.94819 -74.5205,-26.93184 -121.4853,-26.93253 z m 1314.7136,4.14583 0,683.4474 349.1629,0 0,-28.99008 -316.4977,0 0,-654.45732 -32.6652,0 z m 470.587,0 0,683.4474 32.6958,0 0,-683.4474 -32.6958,0 z m 237.3121,0 0,683.4474 187.8557,0 c 76.9139,0 137.4951,-16.58288 181.7383,-49.71923 44.9229,-33.82661 67.3791,-83.51371 67.3797,-149.09625 -6e-4,-47.63323 -14.6221,-85.27545 -43.8901,-112.88935 -29.2686,-27.6133 -69.0984,-45.19611 -119.4665,-52.79021 l 0,-4.14583 c 40.1582,-10.354738 70.1205,-28.645138 89.8598,-54.878478 20.4193,-26.23249 30.6156,-57.659963 30.6161,-94.248487 -5e-4,-55.91702 -19.3764,-97.328095 -58.1735,-124.251995 -38.7979,-27.61296 -92.2327,-41.42689 -160.298,-41.42757 l -175.6215,0 z m 586.261,0 0,683.4474 32.6959,0 0,-323.09819 151.0919,0 189.9048,323.09819 38.7823,0 -191.9235,-325.15575 c 56.4943,-5.5224 100.7187,-23.45901 132.7101,-53.834328 32.671,-31.06494 49.0278,-73.89118 49.0284,-128.428542 -6e-4,-31.75513 -5.1137,-58.675402 -15.3233,-80.76687 -10.2102,-22.09029 -24.8627,-40.0269 -43.9207,-53.83434 -18.3781,-14.4965 -40.8344,-24.86463 -67.3796,-31.07836 -26.5461,-6.90273 -56.4774,-10.34853 -89.8294,-10.34921 l -185.8369,0 z m 564.3314,0 0,683.4474 371.6433,0 0,-28.99008 -338.9476,0 0,-321.00992 275.6663,0 0,-28.990078 -275.6663,0 0,-275.467242 328.7319,0 0,-28.99008 -361.4276,0 z m -3920.0701,8.29165 -208.2866,675.15575 153.1717,0 40.8315,-160.52032 203.1789,0 40.8315,160.52032 159.2582,0 -208.2561,-675.15575 -180.7291,0 z m 1102.8485,0 0,675.15575 150.0825,0 0,-243.34474 82.703,0 127.6329,243.34474 168.4644,0 -151.1225,-270.27727 c 36.0744,-15.87756 64.6607,-39.70582 85.7614,-71.46179 21.7806,-32.44563 32.6648,-73.502908 32.6653,-123.207858 -5e-4,-40.039248 -6.7878,-73.528053 -20.4005,-100.451873 -13.6136,-26.922699 -32.0036,-48.335819 -55.1454,-64.214269 -23.1429,-16.56753 -50.3534,-28.2894 -81.6631,-35.19347 -30.6299,-6.90273 -63.6417,-10.34855 -99.0355,-10.34922 l -239.9425,0 z m 628.1325,0 0,675.15575 150.0825,0 0,-675.15575 -150.0825,0 z m 1071.1619,20.69843 128.6423,0 c 66.0234,6.5e-4 115.7208,10.36877 149.0732,31.07836 34.0325,20.71082 51.0466,54.522703 51.0471,101.465297 -5e-4,47.633975 -15.9979,83.537915 -47.9886,107.699395 -31.9912,23.47198 -84.7382,35.22456 -158.2488,35.22419 l -122.5252,0 0,-275.467242 z m 586.2917,0 140.8763,0 c 62.6203,6.5e-4 110.6127,11.04566 143.9656,33.13591 33.3518,22.09151 50.0371,60.056782 50.0377,113.90279 -6e-4,53.156682 -16.686,92.506422 -50.0377,118.048612 -33.3528,24.852628 -81.3453,37.282078 -143.9656,37.281738 l -140.8763,0 0,-302.36905 z m -3303.6824,95.261917 4.0678,0 c 8.8482,35.207897 17.6993,71.819417 26.5481,109.787665 8.8483,37.96915 18.0585,73.842358 27.5881,107.668678 l 15.2927,62.15671 -141.9163,0 16.3326,-62.15671 c 9.529,-33.82632 18.3799,-69.376448 26.5481,-106.655258 8.8483,-37.968243 17.3707,-74.90285 25.5389,-110.801085 z m 1168.1788,5.189962 77.5952,0 c 39.4778,5.5e-4 69.4399,6.569084 89.86,19.685004 21.1,13.117002 31.6249,36.237665 31.6253,69.373519 -4e-4,33.13679 -10.5253,58.3188 -31.6253,75.57691 -20.4201,16.568548 -50.3822,24.875328 -89.86,24.874968 l -77.5952,0 0,-189.510401 z m 1549.2119,204.005441 142.9563,0 c 72.83,3.4e-4 128.9859,12.75289 168.4644,38.29517 40.1583,24.85255 60.222,63.17158 60.2226,114.9469 -6e-4,28.99445 -5.4426,54.20724 -16.3326,75.60763 -10.2103,20.71032 -25.1913,37.97006 -44.93,51.77678 -19.7394,13.80691 -43.9002,24.14423 -72.4873,31.04764 -27.9074,6.21305 -59.5434,9.3358 -94.9371,9.3358 l -142.9563,0 0,-321.00992 z"
       id="path3842"
       inkscape:connector-curvature="0" />
    <path
       inkscape:connector-curvature="0"
       id="path3861"
       d="m 4008.6402,590.93362 0.8593,26.2256 4.6648,47.5637 14.5161,0 4.6341,-47.5637 0.89,-26.2256 -25.5643,0 z m -2702.4109,6.28819 c -11.1412,0.25618 -21.4342,2.46121 -30.8734,6.5564 -9.8751,4.36857 -18.4002,10.71648 -25.5643,19.07316 -7.1642,8.16716 -12.7823,18.2238 -16.8485,30.18924 -3.8725,11.77573 -5.8002,25.16854 -5.8002,40.17285 0,15.0045 1.9277,28.58373 5.8002,40.73909 4.0662,11.96563 9.6843,22.23849 16.8485,30.78527 7.1641,8.35687 15.6892,14.81289 25.5643,19.37119 10.0685,4.55829 21.1088,6.82461 33.1137,6.82461 12.0047,0 22.9319,-2.26632 32.807,-6.82461 10.0685,-4.5583 18.6759,-11.01432 25.8403,-19.37119 7.3577,-8.54678 12.9758,-18.81964 16.8485,-30.78527 4.0659,-12.15536 6.107,-25.73459 6.1071,-40.73909 -10e-5,-14.8144 -2.0412,-28.099 -6.1071,-39.87483 -3.8727,-11.96536 -9.4908,-22.02218 -16.8485,-30.18924 -7.1644,-8.35678 -15.7718,-14.73439 -25.8403,-19.10297 -9.8751,-4.5581 -20.8023,-6.82433 -32.807,-6.82461 -0.7503,10e-6 -1.4975,-0.0171 -2.2403,0 z m 734.2117,0 c -8.7133,2.8e-4 -16.7332,1.22647 -24.0911,3.69542 -7.1642,2.46924 -13.4525,5.99174 -18.874,10.54984 -5.2279,4.36848 -9.3925,9.56833 -12.4905,15.64596 -2.9045,6.07791 -4.3579,12.64195 -4.3579,19.6692 0,6.83753 1.1443,12.9208 3.4678,18.23871 2.3235,5.1282 5.3437,9.58253 9.0228,13.38102 3.6788,3.79876 7.8435,7.02672 12.4905,9.68559 4.647,2.65914 9.1726,4.95518 13.6261,6.85442 l 27.3135,11.68231 c 4.4532,2.08933 8.6179,4.06112 12.4906,5.96036 3.8724,1.89934 7.171,4.08745 9.8819,6.5564 2.9043,2.27925 5.1105,5.13445 6.6596,8.55312 1.7426,3.22886 2.6391,7.20234 2.6393,11.95053 -2e-4,9.11668 -3.4947,16.53434 -10.465,22.23216 -6.9708,5.508 -16.7535,8.2552 -29.339,8.2551 -9.8751,1e-4 -19.462,-2.0799 -28.756,-6.25838 -9.1005,-4.36838 -17.0379,-10.0788 -23.8149,-17.10624 l -14.5161,16.54001 c 8.326,8.54686 18.1912,15.29733 29.6152,20.23543 11.424,4.9382 23.8352,7.39085 37.1955,7.39085 10.0686,0 19.0679,-1.33439 27.0066,-3.99344 7.9387,-2.84896 14.7011,-6.6361 20.3164,-11.3843 5.615,-4.93819 9.8929,-10.64861 12.7974,-17.10624 3.098,-6.45763 4.634,-13.36453 4.6341,-20.77187 -10e-5,-6.83734 -1.062,-12.84229 -3.1917,-17.97049 -1.9364,-5.31792 -4.6476,-9.88037 -8.1326,-13.67904 -3.4854,-3.98848 -7.65,-7.40277 -12.4906,-10.25182 -4.8409,-3.03877 -9.9846,-5.67784 -15.4061,-7.95709 l -27.0066,-11.41409 c -3.8725,-1.51934 -7.6454,-3.11837 -11.3244,-4.8279 -3.6789,-1.89914 -7.0602,-4.00894 -10.1581,-6.28818 -3.0981,-2.46896 -5.6134,-5.21605 -7.5496,-8.25511 -1.7427,-3.22867 -2.6085,-7.12392 -2.6085,-11.68231 0,-8.54668 3.1853,-15.18903 9.575,-19.93741 6.5833,-4.93802 15.1909,-7.42056 25.8404,-7.42066 8.9067,1e-4 16.8443,1.62912 23.8149,4.8577 7.1641,3.03905 13.6481,7.30696 19.4571,12.81478 l 13.0736,-15.37774 c -6.777,-6.83734 -14.9929,-12.33153 -24.6742,-16.5102 -9.6815,-4.36821 -20.2474,-6.55612 -31.6714,-6.5564 z m 923.5342,0 c -8.7132,2.8e-4 -16.764,1.22647 -24.1218,3.69542 -7.1642,2.46924 -13.4524,5.99174 -18.874,10.54984 -5.2279,4.36848 -9.3925,9.56833 -12.4905,15.64596 -2.9044,6.07791 -4.3579,12.64195 -4.3579,19.6692 0,6.83753 1.1749,12.9208 3.4986,18.23871 2.3234,5.1282 5.3129,9.58253 8.992,13.38102 3.6788,3.79876 7.8435,7.02672 12.4905,9.68559 4.647,2.65914 9.2034,4.95518 13.6568,6.85442 l 27.2828,11.68231 c 4.4533,2.08933 8.618,4.06112 12.4906,5.96036 3.8724,1.89934 7.171,4.08745 9.8819,6.5564 2.9043,2.27925 5.1412,5.13445 6.6904,8.55312 1.7424,3.22886 2.6084,7.20234 2.6085,11.95053 -1e-4,9.11668 -3.4947,16.53434 -10.465,22.23216 -6.9708,5.508 -16.7534,8.2552 -29.339,8.2551 -9.8751,1e-4 -19.462,-2.0799 -28.756,-6.25838 -9.1005,-4.36838 -17.0379,-10.0788 -23.8149,-17.10624 l -14.5161,16.54001 c 8.3259,8.54686 18.1912,15.29733 29.6152,20.23543 11.424,4.9382 23.8352,7.39085 37.1955,7.39085 10.0686,0 19.0679,-1.33439 27.0066,-3.99344 7.9386,-2.84896 14.7011,-6.6361 20.3164,-11.3843 5.615,-4.93819 9.8929,-10.64861 12.7974,-17.10624 3.098,-6.45763 4.634,-13.36453 4.6341,-20.77187 -1e-4,-6.83734 -1.062,-12.84229 -3.1917,-17.97049 -1.9364,-5.31792 -4.6476,-9.88037 -8.1326,-13.67904 -3.4854,-3.98848 -7.65,-7.40277 -12.4906,-10.25182 -4.8409,-3.03877 -9.954,-5.67784 -15.3753,-7.95709 l -27.0374,-11.41409 c -3.8726,-1.51934 -7.6455,-3.11837 -11.3244,-4.8279 -3.6789,-1.89914 -7.0602,-4.00894 -10.1581,-6.28818 -3.0981,-2.46896 -5.6133,-5.21605 -7.5496,-8.25511 -1.7426,-3.22867 -2.6085,-7.12392 -2.6085,-11.68231 0,-8.54668 3.1853,-15.18903 9.5751,-19.93741 6.5832,-4.93802 15.2215,-7.42056 25.871,-7.42066 8.9068,1e-4 16.8443,1.62912 23.8149,4.8577 7.1641,3.03905 13.6481,7.30696 19.4571,12.81478 l 13.0736,-15.37774 c -6.7771,-6.83734 -15.0236,-12.33153 -24.7049,-16.5102 -9.6815,-4.36821 -20.2167,-6.55612 -31.6407,-6.5564 z m 393.4987,0 c -11.1412,0.25618 -21.4342,2.46121 -30.8735,6.5564 -9.8751,4.36857 -18.4,10.71648 -25.5643,19.07316 -7.1642,8.16716 -12.7822,18.2238 -16.8483,30.18924 -3.8727,11.77573 -5.8003,25.16854 -5.8003,40.17285 -10e-5,15.0045 1.9276,28.58373 5.8003,40.73909 4.0661,11.96563 9.6841,22.23849 16.8483,30.78527 7.1643,8.35687 15.6892,14.81289 25.5643,19.37119 10.0686,4.55829 21.0781,6.82461 33.0831,6.82461 12.0048,0 22.9625,-2.26632 32.8376,-6.82461 10.0685,-4.5583 18.6761,-11.01432 25.8404,-19.37119 7.3577,-8.54678 12.9758,-18.81964 16.8484,-30.78527 4.0661,-12.15536 6.1071,-25.73459 6.1073,-40.73909 -2e-4,-14.8144 -2.0412,-28.099 -6.1073,-39.87483 -3.8726,-11.96536 -9.4907,-22.02218 -16.8484,-30.18924 -7.1643,-8.35678 -15.7719,-14.73439 -25.8404,-19.10297 -9.8751,-4.5581 -20.8328,-6.82433 -32.8376,-6.82461 -0.7503,10e-6 -1.4669,-0.0171 -2.2096,0 z m 942.3468,0 c -12.7795,2.8e-4 -24.4899,2.26651 -35.1394,6.82461 -10.6495,4.36858 -19.9579,10.74619 -27.8965,19.10297 -7.7451,8.35706 -13.8374,18.49201 -18.2909,30.45746 -4.2598,11.96563 -6.3834,25.46655 -6.3834,40.47086 0,15.19451 2.1236,28.85185 6.3834,41.00731 4.2598,11.96563 10.1562,22.13039 17.7077,30.48725 7.5515,8.16697 16.5507,14.43657 27.0066,18.80495 10.4558,4.36839 21.9704,6.5564 34.5563,6.5564 12.7793,0 24.2112,-2.00158 34.28,-5.99016 10.2621,-4.17839 18.5086,-9.37823 24.7048,-15.64596 l 0,-78.647 -62.4527,0 0,19.6692 40.3564,0 0,48.72598 c -3.8725,3.41877 -8.9031,6.16595 -15.0992,8.2551 -6.0024,1.89933 -12.3732,2.83127 -19.1501,2.83117 -10.2623,1e-4 -19.3749,-1.78546 -27.3134,-5.39413 -7.7452,-3.60867 -14.3426,-8.75991 -19.7639,-15.40754 -5.2281,-6.64743 -9.2793,-14.62427 -12.1838,-23.93086 -2.7107,-9.49639 -4.0817,-20.11221 -4.0817,-31.88794 0,-11.58564 1.4535,-22.04483 4.358,-31.35151 3.0979,-9.3064 7.3757,-17.17502 12.7974,-23.63284 5.4215,-6.64735 11.9881,-11.69066 19.7333,-15.10953 7.7449,-3.60848 16.4658,-5.42383 26.1473,-5.42393 9.6811,1e-4 17.6187,1.73714 23.8149,5.15572 6.3895,3.22895 12.0077,7.31053 16.8484,12.24854 l 13.6567,-15.10952 c -5.6153,-5.69772 -12.8827,-10.92737 -21.7893,-15.67575 -8.7134,-4.93802 -19.6405,-7.39057 -32.8069,-7.39085 z m 421.3952,0 c -12.1986,2.8e-4 -23.5173,2.26651 -33.9731,6.82461 -10.2622,4.36858 -19.179,10.74619 -26.7303,19.10297 -7.5517,8.35706 -13.448,18.49201 -17.7078,30.45746 -4.2598,11.96563 -6.3835,25.46655 -6.3834,40.47086 -1e-4,15.19451 2.0103,28.85185 6.0765,41.00731 4.2598,11.96563 10.0737,22.13039 17.4315,30.48725 7.5514,8.16697 16.3548,14.43657 26.4235,18.80495 10.2622,4.36839 21.4158,6.5564 33.4207,6.5564 12.1984,0 23.043,-2.37444 32.5307,-7.12263 9.4876,-4.7482 18.0127,-11.39055 25.5643,-19.93742 l -13.6568,-14.54329 c -6.1961,6.64763 -12.7935,11.79887 -19.7639,15.40754 -6.7771,3.60867 -14.7972,5.39423 -24.0912,5.39413 -9.1006,1e-4 -17.3471,-1.78546 -24.7049,-5.39413 -7.1642,-3.60867 -13.2566,-8.75991 -18.2908,-15.40754 -5.0344,-6.64743 -9.0031,-14.62427 -11.9075,-23.93086 -2.7108,-9.49639 -4.0511,-20.11221 -4.051,-31.88794 -1e-4,-11.58564 1.4534,-22.04483 4.3579,-31.35151 2.9043,-9.3064 6.9556,-17.17502 12.1837,-23.63284 5.2278,-6.64735 11.5159,-11.69066 18.8739,-15.10953 7.3578,-3.60848 15.6043,-5.42383 24.705,-5.42393 8.1321,1e-4 15.173,1.62912 21.1755,4.8577 6.196,3.03905 11.8141,7.22875 16.8485,12.54656 l 13.6568,-15.10952 c -5.6154,-6.07762 -12.7695,-11.38549 -21.4825,-15.94397 -8.7134,-4.74801 -18.8878,-7.12235 -30.5053,-7.12263 z m -3291.0323,3.3974 0,109.70049 c 0,15.0045 1.7318,27.62191 5.2171,37.87811 3.4854,10.25621 8.2374,18.6057 14.2399,25.06333 6.196,6.26764 13.4633,10.83008 21.7894,13.67904 8.5196,2.65905 17.6015,3.99344 27.2828,3.99344 9.6813,0 18.6806,-1.33439 27.0066,-3.99344 8.3259,-2.84896 15.5106,-7.4114 21.5133,-13.67904 6.1958,-6.45763 11.0307,-14.80712 14.5161,-25.06333 3.485,-10.2562 5.217,-22.87361 5.2171,-37.87811 l 0,-109.70049 -23.2318,0 0,110.26673 c -10e-5,11.20592 -1.1445,20.59546 -3.4679,28.19252 -2.3236,7.59725 -5.5397,13.68042 -9.6058,18.23871 -4.0663,4.5583 -8.7877,7.89446 -14.2091,9.98361 -5.4217,1.89933 -11.3488,2.83127 -17.7385,2.83117 -6.1961,1e-4 -12.01,-0.93184 -17.4316,-2.83117 -5.4215,-2.08915 -10.143,-5.42531 -14.2091,-9.98361 -3.8725,-4.55829 -6.9754,-10.64146 -9.2988,-18.23871 -2.3236,-7.59706 -3.4987,-16.9866 -3.4987,-28.19252 l 0,-110.26673 -24.091,0 z m 170.0495,0 0,19.96722 57.5119,0 0,166.91998 24.398,0 0,-166.91998 57.5118,0 0,-19.96722 -139.4217,0 z m 173.4561,0 0,186.8872 24.0912,0 0,-186.8872 -24.0912,0 z m 76.57,0 0,186.8872 107.474,0 0,-20.20563 -83.3829,0 0,-166.68157 -24.0911,0 z m 348.2932,0 0,186.8872 107.4742,0 0,-20.20563 -83.3523,0 0,-166.68157 -24.1219,0 z m 141.2631,0 0,186.8872 24.0911,0 0,-186.8872 -24.0911,0 z m 76.5699,0 0,186.8872 60.7034,0 c 10.6495,0 20.4322,-1.11826 29.339,-3.3974 8.9068,-2.27915 16.5659,-5.69344 22.9557,-10.25183 6.3895,-4.5583 11.3069,-10.26871 14.7923,-17.10624 3.4851,-6.83745 5.2478,-14.81419 5.2479,-23.93086 -10e-5,-12.91517 -3.8863,-23.08001 -11.6313,-30.48726 -7.7453,-7.40716 -18.5897,-12.15594 -32.5307,-14.24527 l 0,-1.13247 c 11.2302,-2.84886 19.5594,-7.9704 24.9811,-15.37774 5.4214,-7.59706 8.1325,-16.05466 8.1327,-25.36135 -2e-4,-8.16687 -1.6495,-15.10366 -4.941,-20.80166 -3.0981,-5.88773 -7.5411,-10.63641 -13.3499,-14.24527 -5.6152,-3.60848 -12.491,-6.27736 -20.6232,-7.98689 -7.9388,-1.70924 -16.7422,-2.56277 -26.4236,-2.56296 l -56.6524,0 z m 170.7555,0 0,186.8872 24.0911,0 0,-78.91521 34.5869,0 45.8805,78.91521 27.2829,0 -48.213,-81.47817 c 12.9729,-3.22877 23.343,-9.20382 31.0882,-17.94069 7.7449,-8.73659 11.6312,-20.42225 11.6313,-35.04694 -1e-4,-9.68631 -1.6494,-17.84947 -4.9409,-24.49709 -3.2917,-6.64735 -7.9614,-12.06342 -13.9637,-16.24199 -5.809,-4.1783 -12.8497,-7.11181 -21.1756,-8.82134 -8.1325,-1.89915 -17.0492,-2.86079 -26.7304,-2.86098 l -59.5373,0 z m 168.4844,0 0,186.8872 112.6912,0 0,-20.20563 -88.6001,0 0,-67.79914 72.3349,0 0,-20.23543 -72.3349,0 0,-58.67978 85.6847,0 0,-19.96722 -109.7758,0 z m 366.4306,0 0,186.8872 24.122,0 0,-74.05751 34.2799,0 c 10.4558,0 19.9294,-1.14797 28.4491,-3.42721 8.7131,-2.46896 16.1763,-6.06968 22.3724,-10.81806 6.1959,-4.74811 10.948,-10.72326 14.2399,-17.9407 3.4851,-7.21715 5.217,-15.78288 5.2172,-25.65936 -2e-4,-10.25602 -1.7321,-18.89995 -5.2172,-25.92758 -3.2919,-7.02716 -8.044,-12.62965 -14.2399,-16.80823 -6.0025,-4.3682 -13.3525,-7.48814 -22.0656,-9.38757 -8.7134,-1.89915 -18.3001,-2.86079 -28.7559,-2.86098 l -58.4019,0 z m 359.3415,0 0,109.70049 c 0,15.0045 1.7626,27.62191 5.2479,37.87811 3.4852,10.25621 8.2374,18.6057 14.2398,25.06333 6.1961,6.26764 13.4327,10.83008 21.7588,13.67904 8.5195,2.65905 17.6321,3.99344 27.3135,3.99344 9.6812,0 18.6805,-1.33439 27.0066,-3.99344 8.3258,-2.84896 15.48,-7.4114 21.4826,-13.67904 6.1959,-6.45763 11.0612,-14.80712 14.5467,-25.06333 3.4851,-10.2562 5.2171,-22.87361 5.2172,-37.87811 l 0,-109.70049 -23.2318,0 0,110.26673 c -2e-4,11.20592 -1.1752,20.59546 -3.4987,28.19252 -2.3235,7.59725 -5.5089,13.68042 -9.575,18.23871 -4.0663,4.5583 -8.8184,7.89446 -14.2399,9.98361 -5.4216,1.89933 -11.3181,2.83127 -17.7077,2.83117 -6.1961,1e-4 -12.0101,-0.93184 -17.4315,-2.83117 -5.4217,-2.08915 -10.1738,-5.42531 -14.2399,-9.98361 -3.8726,-4.55829 -6.9447,-10.64146 -9.2682,-18.23871 -2.3236,-7.59706 -3.4987,-16.9866 -3.4986,-28.19252 l 0,-110.26673 -24.1218,0 z m 188.095,0 0,186.8872 24.0911,0 0,-78.91521 34.5562,0 45.9112,78.91521 27.2829,0 -48.213,-81.47817 c 12.9729,-3.22877 23.3432,-9.20382 31.0883,-17.94069 7.745,-8.73659 11.6004,-20.42225 11.6006,-35.04694 -2e-4,-9.68631 -1.6188,-17.84947 -4.9103,-24.49709 -3.2918,-6.64735 -7.9614,-12.06342 -13.9637,-16.24199 -5.8089,-4.1783 -12.8804,-7.11181 -21.2063,-8.82134 -8.1325,-1.89915 -17.0184,-2.86079 -26.6997,-2.86098 l -59.5373,0 z m 226.8862,0 0,186.8872 107.4741,0 0,-20.20563 -83.3522,0 0,-166.68157 -24.1219,0 z m 210.5289,0 -64.4783,186.8872 24.7049,0 18.2908,-56.95127 69.4193,0 17.984,56.95127 25.8711,0 -64.4783,-186.8872 -27.3135,0 z m 295.4769,0 0,186.8872 24.1218,0 0,-78.91521 34.5562,0 45.8806,78.91521 27.3134,0 -48.2129,-81.47817 c 12.9729,-3.22877 23.3125,-9.20382 31.0577,-17.94069 7.7449,-8.73659 11.6312,-20.42225 11.6312,-35.04694 0,-9.68631 -1.6494,-17.84947 -4.941,-24.49709 -3.2918,-6.64735 -7.9306,-12.06342 -13.9329,-16.24199 -5.809,-4.1783 -12.8805,-7.11181 -21.2063,-8.82134 -8.1325,-1.89915 -17.0492,-2.86079 -26.7305,-2.86098 l -59.5373,0 z m 168.4845,0 0,186.8872 24.0912,0 0,-186.8872 -24.0912,0 z m 237.3819,0 0,109.70049 c 1e-4,15.0045 1.732,27.62191 5.2173,37.87811 3.4852,10.25621 8.2374,18.6057 14.2399,25.06333 6.196,6.26764 13.4633,10.83008 21.7893,13.67904 8.5196,2.65905 17.6015,3.99344 27.2829,3.99344 9.6812,0 18.7112,-1.33439 27.0373,-3.99344 8.3258,-2.84896 15.48,-7.4114 21.4826,-13.67904 6.1959,-6.45763 11.0305,-14.80712 14.516,-25.06333 3.4851,-10.2562 5.217,-22.87361 5.2172,-37.87811 l 0,-109.70049 -23.2319,0 0,110.26673 c -1e-4,11.20592 -1.1444,20.59546 -3.4679,28.19252 -2.3236,7.59725 -5.5397,13.68042 -9.6057,18.23871 -4.0663,4.5583 -8.7877,7.89446 -14.2092,9.98361 -5.4217,1.89933 -11.3488,2.83127 -17.7384,2.83117 -6.1961,1e-4 -11.9795,-0.93184 -17.4008,-2.83117 -5.4217,-2.08915 -10.1738,-5.42531 -14.2399,-9.98361 -3.8726,-4.55829 -6.9754,-10.64146 -9.2989,-18.23871 -2.3236,-7.59706 -3.4986,-16.9866 -3.4986,-28.19252 l 0,-110.26673 -24.0912,0 z m 188.0643,0 0,186.8872 107.4742,0 0,-20.20563 -83.3523,0 0,-166.68157 -24.1219,0 z m 88.6308,0 0,19.96722 57.5119,0 0,166.91998 24.398,0 0,-166.91998 57.5118,0 0,-19.96722 -139.4217,0 z m 172.5662,0 0,109.70049 c 0,15.0045 1.7626,27.62191 5.2479,37.87811 3.4852,10.25621 8.2067,18.6057 14.2091,25.06333 6.196,6.26764 13.4634,10.83008 21.7895,13.67904 8.5195,2.65905 17.6321,3.99344 27.3135,3.99344 9.6812,0 18.6805,-1.33439 27.0066,-3.99344 8.3259,-2.84896 15.4799,-7.4114 21.4825,-13.67904 6.1958,-6.45763 11.0613,-14.80712 14.5468,-25.06333 3.4851,-10.2562 5.217,-22.87361 5.2172,-37.87811 l 0,-109.70049 -23.2319,0 0,110.26673 c 0,11.20592 -1.1752,20.59546 -3.4985,28.19252 -2.3237,7.59725 -5.5091,13.68042 -9.5751,18.23871 -4.0664,4.5583 -8.8185,7.89446 -14.2398,9.98361 -5.4217,1.89933 -11.3182,2.83127 -17.7078,2.83117 -6.1961,1e-4 -12.01,-0.93184 -17.4316,-2.83117 -5.4216,-2.08915 -10.1737,-5.42531 -14.2398,-9.98361 -3.8726,-4.55829 -6.9754,-10.64146 -9.2988,-18.23871 -2.3237,-7.59706 -3.468,-16.9866 -3.468,-28.19252 l 0,-110.26673 -24.1218,0 z m 188.0949,0 0,186.8872 24.0912,0 0,-78.91521 34.5562,0 45.9112,78.91521 27.2828,0 -48.2129,-81.47817 c 12.9729,-3.22877 23.343,-9.20382 31.0883,-17.94069 7.7449,-8.73659 11.6005,-20.42225 11.6005,-35.04694 0,-9.68631 -1.6494,-17.84947 -4.9409,-24.49709 -3.2919,-6.64735 -7.9307,-12.06342 -13.933,-16.24199 -5.809,-4.1783 -12.8805,-7.11181 -21.2063,-8.82134 -8.1325,-1.89915 -17.0185,-2.86079 -26.6998,-2.86098 l -59.5373,0 z m 168.4538,0 0,186.8872 112.6912,0 0,-20.20563 -88.5694,0 0,-67.79914 72.3041,0 0,-20.23543 -72.3041,0 0,-58.67978 85.6847,0 0,-19.96722 -109.8065,0 z m -4305.5912,17.37446 c 8.5195,1e-4 16.1479,1.81545 22.9249,5.42393 6.9705,3.41887 12.8977,8.35407 17.7386,14.81151 5.0341,6.45772 8.8896,14.35624 11.6004,23.66264 2.7107,9.30668 4.0817,19.73617 4.0818,31.32171 -10e-5,11.77573 -1.3711,22.42135 -4.0818,31.91775 -2.7108,9.30668 -6.5663,17.36163 -11.6004,24.19907 -4.8409,6.64763 -10.7681,11.79887 -17.7386,15.40754 -6.777,3.60867 -14.4054,5.39423 -22.9249,5.39413 -8.5196,1e-4 -16.2613,-1.78546 -23.2318,-5.39413 -6.777,-3.60867 -12.7041,-8.75991 -17.7384,-15.40754 -4.8407,-6.83744 -8.6136,-14.89239 -11.3244,-24.19907 -2.7108,-9.4964 -4.051,-20.14202 -4.051,-31.91775 0,-11.58554 1.3402,-22.01503 4.051,-31.32171 2.7108,-9.3064 6.4837,-17.20492 11.3244,-23.66264 5.0343,-6.45744 10.9614,-11.39264 17.7384,-14.81151 6.9705,-3.60848 14.7122,-5.42383 23.2318,-5.42393 z m 2051.2139,0 c 8.5195,1e-4 16.1786,1.81545 22.9556,5.42393 6.9705,3.41887 12.867,8.35407 17.7077,14.81151 5.0343,6.45772 8.9205,14.35624 11.6313,23.66264 2.7106,9.30668 4.0508,19.73617 4.051,31.32171 -2e-4,11.77573 -1.3404,22.42135 -4.051,31.91775 -2.7108,9.30668 -6.597,17.36163 -11.6313,24.19907 -4.8407,6.64763 -10.7372,11.79887 -17.7077,15.40754 -6.777,3.60867 -14.4361,5.39423 -22.9556,5.39413 -8.5196,1e-4 -16.2614,-1.78546 -23.2318,-5.39413 -6.777,-3.60867 -12.6735,-8.75991 -17.7078,-15.40754 -4.8407,-6.83744 -8.6136,-14.89239 -11.3244,-24.19907 -2.7107,-9.4964 -4.051,-20.14202 -4.051,-31.91775 10e-5,-11.58554 1.3403,-22.01503 4.051,-31.32171 2.7108,-9.3064 6.4837,-17.20492 11.3244,-23.66264 5.0343,-6.45744 10.9308,-11.39264 17.7078,-14.81151 6.9704,-3.60848 14.7122,-5.42383 23.2318,-5.42393 z m -919.1763,1.43049 29.3083,0 c 14.9092,10e-5 26.0628,2.29622 33.4207,6.85442 7.5514,4.36848 11.3243,11.67811 11.3244,21.93414 -10e-5,10.44629 -3.5773,18.42303 -10.7413,23.93086 -6.9708,5.508 -18.6811,8.25519 -35.1392,8.2551 l -28.1729,0 0,-60.97452 z m 170.7248,0.29802 31.9475,0 c 14.9092,1.9e-4 26.3413,2.45284 34.2801,7.39085 7.9385,4.93829 11.9073,13.58232 11.9074,25.92758 -1e-4,12.15563 -3.9689,21.28044 -11.9074,27.35807 -7.9388,5.88791 -19.3709,8.82143 -34.2801,8.82134 l -31.9475,0 0,-69.49784 z m 534.9459,0 31.3644,0 c 16.4582,1.9e-4 28.7561,2.66897 36.8886,7.98689 8.1322,5.1282 12.1836,14.40971 12.1837,27.8945 -10e-5,13.29525 -4.0515,23.08725 -12.1837,29.35479 -7.9388,6.07781 -20.2368,9.11945 -36.8886,9.11935 l -31.3644,0 0,-74.35553 z m 547.4056,0 31.9476,0 c 14.9091,1.9e-4 26.3411,2.45284 34.28,7.39085 7.9386,4.93829 11.9074,13.58232 11.9075,25.92758 -1e-4,12.15563 -3.9689,21.28044 -11.9075,27.35807 -7.9389,5.88791 -19.3709,8.82143 -34.28,8.82134 l -31.9476,0 0,-69.49784 z m 732.9227,0 31.9477,0 c 14.9091,1.9e-4 26.3104,2.45284 34.2493,7.39085 7.9385,4.93829 11.9073,13.58232 11.9074,25.92758 -1e-4,12.15563 -3.9689,21.28044 -11.9074,27.35807 -7.9389,5.88791 -19.3402,8.82143 -34.2493,8.82134 l -31.9477,0 0,-69.49784 z m 1043.192,0 31.9476,0 c 14.9091,1.9e-4 26.3411,2.45284 34.28,7.39085 7.9385,4.93829 11.9073,13.58232 11.9074,25.92758 -1e-4,12.15563 -3.9689,21.28044 -11.9074,27.35807 -7.9389,5.88791 -19.3709,8.82143 -34.28,8.82134 l -31.9476,0 0,-69.49784 z m -1350.3001,0.26821 1.1661,0 c 3.098,10.82621 6.2008,21.47183 9.2989,31.91775 3.098,10.25639 6.3966,20.60757 9.882,31.0535 l 8.992,28.49053 -57.2049,0 8.9919,-28.49053 c 3.4852,-10.44593 6.7839,-20.79711 9.882,-31.0535 3.0979,-10.44592 6.0875,-21.09154 8.992,-31.91775 z m -1678.8909,78.08077 33.1138,0 c 16.8454,9e-5 29.7002,2.74728 38.6072,8.2551 8.9067,5.3181 13.3803,13.77571 13.3805,25.36135 -2e-4,12.72535 -4.5564,22.11489 -13.6568,28.19252 -9.1006,5.88791 -21.8727,8.85123 -38.3309,8.85114 l -33.1138,0 0,-70.66011 z"
       style="font-style:normal;font-variant:normal;font-weight:normal;font-stretch:normal;font-size:medium;line-height:125%;font-family:'Source Sans Pro';-inkscape-font-specification:'Source Sans Pro';text-align:start;letter-spacing:0px;word-spacing:0px;writing-mode:lr-tb;text-anchor:start;fill:#ffffff;fill-opacity:0.67003369;stroke:none" />
  </g>
</svg>
